<?xml version="1.0" standalone="no"?>
<!DOCTYPE svg PUBLIC "-//W3C//DTD SVG 20010904//EN"
 "http://www.w3.org/TR/2001/REC-SVG-20010904/DTD/svg10.dtd">
<svg version="1.0" xmlns="http://www.w3.org/2000/svg"
 width="919.000000pt" height="919.000000pt" viewBox="0 0 919.000000 919.000000"
 preserveAspectRatio="xMidYMid meet">
<metadata>
Created by potrace 1.14, written by Peter Selinger 2001-2017
</metadata>
<g transform="translate(0.000000,919.000000) scale(0.100000,-0.100000)"
fill="#000000" stroke="none">
<path d="M4761 7963 c-46 -14 -62 -14 -117 -4 -100 20 -374 -4 -499 -44 -27
-9 -93 -20 -145 -25 -93 -8 -256 -30 -375 -51 -33 -5 -89 -14 -125 -18 -54 -7
-109 -23 -130 -39 -2 -2 1 -7 8 -11 8 -5 -16 -14 -60 -25 -40 -9 -116 -30
-168 -46 -52 -15 -121 -35 -152 -44 -32 -9 -86 -36 -121 -60 -84 -57 -323
-194 -411 -235 -38 -17 -74 -38 -80 -46 -6 -9 -20 -17 -31 -19 -53 -11 -196
-102 -273 -173 -59 -56 -153 -123 -173 -123 -11 0 -42 -18 -70 -40 -28 -22
-66 -47 -86 -56 -19 -10 -38 -25 -41 -35 -4 -10 -50 -62 -103 -117 -78 -80
-106 -103 -145 -116 -78 -26 -220 -161 -404 -386 -52 -63 -125 -150 -162 -193
-38 -42 -68 -83 -68 -90 0 -6 -17 -28 -38 -47 -56 -53 -175 -234 -212 -322
-17 -43 -36 -81 -42 -84 -5 -4 -56 -100 -113 -215 -93 -189 -106 -222 -135
-346 -18 -76 -39 -154 -47 -173 -15 -35 -27 -75 -56 -180 -25 -88 -39 -305
-37 -582 0 -193 4 -269 15 -305 8 -27 15 -85 15 -129 0 -100 33 -328 60 -409
11 -33 23 -112 28 -176 7 -96 12 -122 31 -148 14 -19 21 -40 18 -52 -12 -44
70 -255 113 -294 13 -11 54 -58 93 -105 64 -78 225 -240 237 -240 3 0 56 -37
117 -83 97 -71 242 -164 426 -271 27 -16 113 -56 191 -88 478 -200 611 -243
960 -313 371 -73 400 -77 603 -73 216 4 501 -7 603 -23 41 -6 145 -12 230 -14
85 -2 182 -8 216 -14 33 -6 171 -13 305 -16 134 -2 305 -10 379 -16 170 -15
449 2 625 38 218 44 358 64 510 72 116 7 163 14 205 31 30 12 157 59 281 105
125 46 244 92 265 103 22 10 115 36 208 58 140 31 173 42 190 62 12 14 50 38
86 54 36 16 78 40 95 52 16 13 61 33 99 45 38 12 113 44 167 72 54 27 107 49
116 49 24 0 254 115 282 141 41 39 166 119 184 119 11 0 39 18 64 40 25 21 68
52 96 68 79 45 201 145 307 251 102 103 198 244 281 414 24 49 55 97 69 107
15 10 34 36 43 57 18 42 62 237 72 323 4 30 14 84 22 120 8 38 12 82 8 107 -3
25 -2 44 5 48 26 16 -5 422 -39 508 -6 16 -11 45 -11 65 0 20 -13 105 -30 187
-16 83 -30 168 -30 190 0 22 -8 56 -19 75 -52 100 -111 317 -111 415 0 23 -9
58 -20 80 -11 22 -20 44 -20 50 0 15 -54 140 -67 156 -35 43 -153 257 -153
279 0 16 -39 78 -111 175 -61 83 -134 188 -162 235 -50 81 -139 182 -200 225
-25 18 -29 28 -34 91 -5 64 -2 80 36 190 22 66 41 130 41 142 0 49 -111 42
-284 -18 -132 -46 -168 -62 -208 -95 -22 -18 -44 -24 -129 -30 -57 -4 -119
-13 -139 -20 -19 -7 -70 -16 -113 -18 -61 -4 -124 -21 -303 -81 -124 -42 -276
-97 -337 -122 -62 -25 -141 -54 -177 -64 -36 -11 -148 -53 -250 -95 -102 -42
-228 -92 -280 -111 -52 -19 -133 -58 -178 -86 -46 -28 -116 -63 -155 -78 -72
-26 -360 -205 -487 -301 -36 -27 -114 -101 -173 -164 -106 -112 -146 -141
-132 -92 9 28 212 513 229 547 114 221 173 320 337 565 169 254 232 319 479
496 156 112 216 146 440 251 110 51 154 78 181 108 20 22 46 40 57 40 19 0
394 -145 451 -175 16 -8 60 -43 97 -77 38 -35 112 -97 164 -139 103 -83 149
-129 225 -231 57 -76 109 -113 126 -88 5 8 12 27 16 43 4 21 10 26 24 22 11
-4 19 -2 19 5 0 14 -111 141 -202 232 -121 120 -397 315 -516 364 -241 99
-282 122 -282 159 0 12 82 143 123 196 15 20 27 41 27 48 0 6 18 31 40 55 47
50 49 63 15 72 -40 10 -80 -2 -151 -45 -87 -53 -285 -101 -414 -101 -79 0
-101 5 -202 41 -130 48 -199 53 -374 31 -173 -22 -444 1 -741 63 -140 29 -131
28 -202 8z m-1224 -321 c16 -10 33 -57 33 -90 0 -15 9 -44 20 -65 11 -20 20
-48 20 -62 0 -15 9 -31 25 -41 29 -19 32 -39 8 -48 -18 -7 -37 4 -210 123
-101 70 -122 88 -123 102 0 7 180 87 200 88 8 0 20 -3 27 -7z m-503 -92 c-21
-10 -50 -21 -64 -25 -25 -7 -25 -7 3 15 30 24 77 40 91 32 6 -3 -8 -13 -30
-22z m1784 -26 c12 -8 22 -19 22 -24 0 -13 -134 -106 -203 -141 -80 -41 -228
-79 -307 -79 -64 0 -249 26 -259 36 -10 9 21 22 72 28 55 8 100 27 135 60 13
11 38 21 55 22 62 3 182 26 210 40 15 8 31 22 34 30 10 27 26 15 20 -16 -6
-26 -4 -30 16 -30 63 0 150 52 132 79 -10 17 47 13 73 -5z m-1878 -338 c0 -8
-5 -18 -11 -21 -22 -14 -1 -37 56 -60 33 -14 69 -36 80 -51 11 -14 54 -61 96
-103 86 -86 115 -144 84 -167 -33 -24 -113 23 -226 134 -71 71 -209 236 -209
252 0 6 76 26 113 29 9 0 17 -5 17 -13z m1507 -332 c18 -14 33 -29 33 -34 0
-5 -52 -49 -115 -96 l-115 -87 -91 -9 c-49 -5 -152 -24 -227 -43 -75 -19 -145
-35 -154 -35 -32 0 -19 26 25 50 23 13 66 41 94 62 74 54 243 135 311 148 77
15 159 41 180 57 22 16 20 17 59 -13z m-3097 -334 c0 -5 -4 -10 -10 -10 -5 0
-10 5 -10 10 0 6 5 10 10 10 6 0 10 -4 10 -10z m1145 -9 c46 -22 178 -127 276
-219 79 -74 93 -112 59 -166 -22 -37 -38 -46 -76 -46 -81 0 -182 121 -230 275
-20 66 -36 99 -61 124 -53 53 -41 66 32 32z m1370 -410 c44 -9 46 -43 3 -69
-40 -25 -183 -75 -287 -102 -105 -27 -254 -42 -325 -34 -54 6 -58 8 -41 20 10
8 29 14 41 14 12 0 44 18 70 40 27 22 69 47 94 54 25 8 63 25 83 39 21 14 59
29 85 32 26 4 54 8 62 9 27 6 184 4 215 -3z"/>
<path d="M1595 6786 c-11 -8 -14 -15 -8 -19 6 -4 16 0 23 8 17 21 8 28 -15 11z"/>
</g>
</svg>
