<svg xmlns="http://www.w3.org/2000/svg" viewBox="111.86892480000002 174.795195 939.2328478000002 710.833793" id="svg2" version="1.1" style="max-height: 500px" width="939.2328478000002" height="710.833793">
  <defs id="defs6">
    <clipPath id="clipPath16" clipPathUnits="userSpaceOnUse">
      <path id="path14" d="M 0,873.976 H 873.976 V 0 H 0 Z"/>
    </clipPath>
    <clipPath id="clipPath28" clipPathUnits="userSpaceOnUse">
      <path id="path26" d="M 0,873.976 H 873.976 V 0 H 0 Z"/>
    </clipPath>
    <clipPath id="clipPath36" clipPathUnits="userSpaceOnUse">
      <path id="path34" d="M 104.106,726.933 H 764.853 V 230.022 H 104.106 Z"/>
    </clipPath>
    <clipPath id="clipPath80" clipPathUnits="userSpaceOnUse">
      <path id="path78" d="M 0,873.976 H 873.976 V 0 H 0 Z"/>
    </clipPath>
  </defs>
  
  <g transform="matrix(1.3333333,0,0,-1.3333333,0,1165.3013)" id="g8">
    <g id="g10">
      <g clip-path="url(#clipPath16)" id="g12">
        <g transform="translate(758.6111,445.005)" id="g18">
          <path id="path20" style="fill:#ffffff;fill-opacity:1;fill-rule:nonzero;stroke:none" d="m 0,0 c -0.714,2.532 -1.754,5.011 -3.052,7.369 -0.18,12.326 -1.386,24.569 -3.398,36.858 -2.594,15.848 -7.91,30.766 -14.646,45.319 -7.23,15.622 -17.983,30.368 -30.782,41.897 0.655,4.827 1.31,9.654 1.966,14.481 -0.073,-0.001 -0.146,-0.006 -0.219,-0.006 -11.289,0 -19.649,9.227 -20.138,20.138 -0.066,1.485 0.071,2.938 0.373,4.344 -0.197,1.037 -0.324,2.096 -0.373,3.173 -0.244,5.447 2.167,10.489 5.957,14.166 -4.356,2.843 -9.348,4.773 -14.668,5.488 -0.182,0.024 -0.366,0.042 -0.548,0.064 -3.775,-1.323 -7.917,-1.352 -11.841,-0.327 -3.625,-0.685 -7.128,-1.949 -10.223,-3.945 -2.221,-1.432 -4.516,-3.163 -6.662,-5.133 -0.865,0.007 -1.731,0.009 -2.599,-0.008 -8.303,-0.166 -16.613,-1.361 -24.786,-2.718 -10.866,-1.805 -21.418,-5.144 -31.652,-9.167 -21.976,-8.639 -42.797,-19.712 -64.382,-29.185 -7.36,-2.906 -14.851,-5.345 -22.324,-7.977 -7.079,-2.493 -14.243,-5.255 -20.814,-8.886 -6.273,-3.466 -11.989,-8.153 -17.414,-12.779 -5.863,-4.999 -11.267,-10.572 -16.674,-16.092 3.23,19.729 7.721,39.249 15.011,57.897 4.614,10.122 10.125,19.75 16.645,28.769 0.447,0.541 0.909,1.068 1.363,1.602 0.731,0.381 1.454,0.787 2.164,1.235 10.799,6.807 19.103,15.407 26.791,24.773 6.108,3.885 12.459,7.368 19.045,10.409 2.032,0.785 4.072,1.546 6.134,2.256 8.781,3.021 16.402,8.108 21.194,16.297 0.297,0.507 0.58,1.033 0.853,1.57 6.787,1.41 13.151,4.561 18.141,9.551 5.772,5.772 10.206,15.016 10.402,23.433 -3.276,-2.253 -7.138,-3.544 -11.065,-3.302 -34.485,2.131 -70.498,-6.607 -103.817,5.968 -5.426,0.224 -10.86,0.424 -16.296,0.567 -2.618,0.668 -5.309,1 -8.006,0.879 -1.951,-0.088 -4,-0.302 -6.066,-0.651 -25.396,0.126 -50.752,-1.479 -75.539,-7.747 -18.856,-4.768 -36.783,-12.387 -54.644,-19.957 -13.228,-5.605 -26.71,-11.04 -39.024,-18.514 -0.573,-0.348 -1.146,-0.702 -1.719,-1.06 -2.528,0.758 -5.124,1.3 -7.746,1.717 -0.655,-0.97 -1.696,-1.707 -3.124,-1.87 -0.8,-0.091 -1.58,-0.228 -2.35,-0.389 -1.455,-1.668 -3.181,-3.109 -5.078,-4.261 0.772,-1.72 0.47,-3.812 -1.721,-4.9 -1.758,-0.874 -3.572,-1.736 -5.408,-2.596 -0.83,-1.762 -1.884,-3.425 -3.155,-4.899 -18.672,-21.677 -42.224,-39.587 -64.616,-57.244 -6.84,-5.393 -13.696,-10.822 -20.118,-16.717 -5.804,-10.038 -10.491,-20.846 -19.396,-28.618 -0.264,-0.231 -0.567,-0.416 -0.884,-0.576 -0.187,-0.85 -0.356,-1.709 -0.491,-2.59 -0.507,-3.331 -2.189,-6.059 -4.52,-8.151 -1.434,-3.686 -4.052,-6.892 -7.306,-9.208 0.438,-1.585 0.704,-3.239 0.78,-4.934 0.3,-6.696 -3.413,-12.775 -8.768,-16.461 0.397,-0.874 0.524,-1.891 0.336,-2.9 -0.415,-2.228 -0.413,-4.505 -0.414,-6.766 -10e-4,-2.824 -2.315,-4.146 -4.498,-3.985 V 33.518 c 0,-6.079 -2.985,-11.2 -7.477,-14.439 -0.547,-9.468 -1.531,-18.907 -2.425,-28.354 3.599,-2.456 6.428,-6.16 7.824,-10.333 7.652,-22.884 7.799,-47.473 7.801,-71.348 0,-3.695 -1.108,-7.033 -2.978,-9.817 0.549,-1.31 1.065,-2.641 1.668,-3.828 1.493,-2.935 3.09,-5.816 4.78,-8.642 3.532,-5.909 7.486,-11.542 11.659,-17.013 0.07,-0.048 0.146,-0.083 0.216,-0.132 8.628,-6.089 16.885,-12.693 25.129,-19.287 2.731,-2.185 4.295,-5.134 4.924,-8.329 6.994,-3.148 13.63,-7.361 19.647,-11.253 4.692,-3.035 9.308,-6.328 13.991,-9.525 3.774,0.41 7.606,-0.289 10.707,-2.397 2.731,-1.856 5.395,-3.804 8.081,-5.724 2.455,0.306 4.971,0.11 7.619,-0.317 4.96,-0.8 9.577,-2.684 14.308,-4.293 5.107,-1.736 8.986,-5.089 11.177,-9.347 1.77,-0.602 3.544,-1.189 5.326,-1.75 1.666,0.547 3.401,0.894 5.147,1.014 45.264,3.107 93.511,2.156 137.162,-11.378 2.535,-0.786 4.754,-2.021 6.622,-3.58 1.564,0.105 3.128,0.2 4.691,0.311 2.512,1.122 5.23,1.784 7.978,1.872 19.685,0.623 39.382,0.093 59.068,0.583 8.917,0.221 17.831,0.663 26.711,1.517 2.452,0.236 4.898,0.519 7.343,0.807 0.245,0.029 0.414,0.048 0.546,0.063 0.505,0.11 0.975,0.222 1.222,0.261 4.083,0.659 8.157,1.368 12.222,2.13 15.78,2.954 31.399,6.723 46.818,11.192 15.64,4.533 30.916,10.077 46.369,15.184 1.985,0.656 3.972,1.307 5.958,1.961 0.025,0.047 0.043,0.098 0.068,0.145 3.291,6.228 9.838,8.99 16.36,8.695 -0.107,0.029 -0.214,0.058 -0.32,0.087 0.461,-0.052 0.917,-0.111 1.37,-0.174 0.046,-0.004 0.091,-0.007 0.137,-0.011 4.719,3.473 9.495,6.878 14.657,9.644 4.891,2.62 10.068,4.565 15.309,6.338 0.263,0.089 2.942,1.143 3.038,1.119 1.418,0.667 2.819,1.375 4.184,2.143 0.94,0.53 1.858,1.092 2.767,1.668 1.389,4.256 4.248,8.083 8.07,10.459 6.896,4.289 12.836,9.524 20.383,12.264 1.635,1.234 3.283,2.452 4.961,3.631 4.108,2.888 9.013,3.204 13.521,1.856 3.815,3.655 7.562,7.383 11.292,11.129 2.188,10.738 4.442,21.492 6.579,32.275 0.841,1.367 1.631,2.755 2.397,4.153 6.462,0.06 8.302,7.266 5.504,11.382 0.942,2.18 1.853,4.382 2.745,6.611 C 4.162,-39.483 5.189,-18.408 0,0"/>
        </g>
      </g>
    </g>
    <g id="g22">
      <g clip-path="url(#clipPath28)" id="g24">
        <g id="g30">
          <g id="g32"/>
          <g id="g44">
            <g id="g42" opacity="0.809998" clip-path="url(#clipPath36)">
              <g id="g40" transform="translate(761.5947,447.9308)">
                <path id="path38" style="fill:#8d6a56;fill-opacity:1;fill-rule:nonzero;stroke:none" d="m 0,0 c -0.714,2.532 -1.754,5.011 -3.052,7.369 -0.18,12.326 -1.386,24.569 -3.398,36.858 -2.594,15.848 -7.91,30.766 -14.646,45.319 -7.23,15.622 -17.983,30.368 -30.782,41.897 0.655,4.827 1.31,9.654 1.966,14.481 -0.073,-0.001 -0.146,-0.006 -0.219,-0.006 -11.289,0 -19.649,9.227 -20.138,20.138 -0.066,1.485 0.071,2.938 0.373,4.344 -0.197,1.037 -0.324,2.096 -0.373,3.173 -0.244,5.447 2.167,10.489 5.957,14.166 -4.356,2.843 -9.348,4.773 -14.668,5.488 -0.182,0.024 -0.366,0.042 -0.548,0.064 -3.775,-1.323 -7.917,-1.352 -11.841,-0.327 -3.625,-0.685 -7.128,-1.949 -10.223,-3.945 -2.221,-1.432 -4.516,-3.163 -6.662,-5.133 -0.865,0.007 -1.731,0.009 -2.599,-0.008 -8.303,-0.166 -16.613,-1.361 -24.786,-2.718 -10.866,-1.805 -21.418,-5.144 -31.652,-9.167 -21.976,-8.639 -42.797,-19.712 -64.382,-29.185 -7.36,-2.906 -14.851,-5.345 -22.324,-7.977 -7.079,-2.493 -14.243,-5.255 -20.814,-8.886 -6.273,-3.466 -11.989,-8.153 -17.414,-12.779 -5.863,-4.999 -11.267,-10.572 -16.674,-16.092 3.23,19.729 7.721,39.249 15.011,57.897 4.614,10.122 10.125,19.75 16.645,28.769 0.447,0.541 0.909,1.068 1.363,1.602 0.731,0.381 1.454,0.787 2.164,1.235 10.799,6.807 19.103,15.407 26.791,24.773 6.108,3.885 12.459,7.368 19.045,10.409 2.032,0.785 4.072,1.546 6.134,2.256 8.781,3.021 16.402,8.108 21.194,16.297 0.297,0.507 0.58,1.033 0.853,1.57 6.787,1.41 13.151,4.561 18.141,9.551 5.772,5.772 10.206,15.016 10.402,23.433 -3.276,-2.253 -7.138,-3.544 -11.065,-3.301 -34.485,2.13 -70.498,-6.608 -103.817,5.967 -5.426,0.224 -10.86,0.424 -16.296,0.567 -2.618,0.668 -5.309,1 -8.006,0.879 -1.951,-0.088 -4,-0.302 -6.066,-0.651 -25.396,0.126 -50.752,-1.479 -75.539,-7.747 -18.856,-4.768 -36.783,-12.387 -54.644,-19.957 -13.228,-5.605 -26.71,-11.04 -39.024,-18.514 -0.573,-0.348 -1.146,-0.702 -1.719,-1.06 -2.528,0.758 -5.124,1.3 -7.746,1.717 -0.655,-0.97 -1.696,-1.707 -3.124,-1.87 -0.8,-0.091 -1.58,-0.228 -2.35,-0.389 -1.455,-1.668 -3.181,-3.109 -5.078,-4.261 0.772,-1.72 0.47,-3.812 -1.721,-4.9 -2.124,-1.056 -4.318,-2.096 -6.551,-3.134 -0.21,-1.881 -1.533,-3.615 -3.972,-3.615 -0.364,0 -0.695,0.05 -1.01,0.122 -3.431,-1.937 -5.856,-5.37 -9.262,-7.424 -1.547,-0.933 -3.044,-0.733 -4.177,0.045 -1.746,-1.459 -3.529,-2.81 -5.378,-3.98 -0.695,-0.44 -1.381,-0.638 -2.028,-0.656 0.502,-1.608 0.069,-3.412 -1.906,-4.402 -1.059,-0.531 -2.065,-1.13 -3.044,-1.761 -1.579,-3.263 -4.043,-6.146 -7.077,-8.169 -3.981,-3.6 -7.189,-7.939 -10.946,-11.77 -3.708,-3.78 -8.581,-5.39 -13.414,-5.143 -5.518,-4.887 -9.727,-10.947 -14.471,-16.587 -1.412,-1.678 -2.903,-3.273 -4.463,-4.784 0.102,-0.801 -0.1,-1.68 -0.739,-2.568 -8.512,-11.821 -13.029,-26.45 -24.254,-36.248 -1.378,-1.202 -3.611,-1.458 -5.185,-0.607 0.254,-1.188 0.416,-2.409 0.472,-3.653 0.294,-6.579 -3.285,-12.561 -8.489,-16.265 0.438,-1.585 0.704,-3.239 0.78,-4.934 0.3,-6.696 -3.413,-12.775 -8.768,-16.461 0.397,-0.874 0.524,-1.891 0.336,-2.9 -0.415,-2.228 -0.413,-4.505 -0.414,-6.766 -10e-4,-3.312 -3.185,-4.566 -5.607,-3.773 0.271,-6.295 -3.004,-12.043 -7.853,-15.768 1.231,-2.605 1.928,-5.447 1.915,-8.327 -10e-4,-0.323 -0.008,-0.646 -0.011,-0.969 0.081,-0.622 0.138,-1.251 0.167,-1.887 0.061,-1.372 -0.046,-2.718 -0.301,-4.023 -0.517,-14.321 -2.303,-28.555 -3.486,-42.837 -0.661,-7.986 -1.125,-16.001 -0.973,-24.017 0.077,-4.031 0.389,-8.025 0.746,-12.037 0.125,-0.785 0.251,-1.57 0.394,-2.351 0.321,-1.756 0.691,-3.502 1.108,-5.238 1.653,-6.876 3.214,-13.768 5.204,-20.558 0.936,-3.197 1.948,-6.373 3.056,-9.515 0.54,-1.532 1.102,-3.055 1.689,-4.57 0.124,-0.32 0.253,-0.637 0.379,-0.956 1.445,-2.199 2.294,-5.113 3.488,-7.461 1.493,-2.935 3.09,-5.816 4.78,-8.642 3.673,-6.145 7.796,-11.996 12.154,-17.673 1.78,-2.319 2.687,-4.933 2.935,-7.624 2.917,-3.413 4.8,-7.756 5.133,-12.24 0.02,-0.077 0.041,-0.155 0.061,-0.233 0.165,-0.317 0.329,-0.634 0.509,-0.942 0.236,-0.402 0.494,-0.791 0.748,-1.182 14.418,0.195 28.382,-8.582 40.035,-16.12 10.99,-7.109 21.562,-15.637 33.562,-21.016 2.326,-1.043 4.202,-2.58 5.667,-4.43 1.154,-0.751 2.23,-1.623 3.209,-2.601 3.162,-0.317 6.351,-0.555 9.571,-0.704 2.093,-0.097 4.189,-0.155 6.285,-0.189 22.204,-8.228 45.389,-13.464 68.951,-16.461 7.99,2.993 15.948,3.972 24.609,3.398 7.418,-0.491 14.783,-1.733 22.225,-1.827 4.773,-0.061 8.948,-1.888 12.096,-4.822 9.463,0.085 18.907,0.423 28.294,0.979 3.454,0.204 6.908,0.441 10.362,0.687 2.512,1.122 5.23,1.784 7.978,1.872 19.685,0.623 39.382,0.093 59.068,0.583 8.917,0.221 17.831,0.663 26.711,1.517 2.452,0.236 4.898,0.519 7.343,0.807 0.245,0.029 0.414,0.048 0.546,0.063 0.505,0.11 0.975,0.222 1.222,0.261 4.083,0.659 8.157,1.368 12.222,2.13 15.78,2.954 31.399,6.723 46.818,11.192 15.64,4.533 30.916,10.077 46.369,15.184 7.686,2.54 15.399,5.008 22.988,7.827 1.658,0.615 3.301,1.266 4.949,1.903 0.615,0.405 1.865,0.761 2.507,1.05 3.536,1.591 6.994,3.328 10.386,5.206 2.122,1.176 4.326,1.941 6.54,2.329 1.697,1.412 3.388,2.832 5.064,4.271 2.587,2.221 5.159,4.474 7.719,6.751 0.199,-0.015 0.4,-0.017 0.6,-0.029 1.458,4.007 4.226,7.579 7.861,9.84 8.325,5.177 15.247,11.746 25.298,13.622 3.095,0.577 6.098,0.539 8.867,-0.08 6.536,5.865 12.779,12.041 18.976,18.264 2.188,10.738 4.442,21.492 6.579,32.275 0.841,1.367 1.631,2.755 2.397,4.154 6.462,0.059 8.302,7.265 5.504,11.381 0.942,2.18 1.853,4.382 2.745,6.611 C 4.162,-39.483 5.189,-18.408 0,0"/>
              </g>
            </g>
          </g>
        </g>
        <g transform="translate(660.7117,645.9249)" id="g46">
          <path id="path48" style="fill:#d8bead;fill-opacity:1;fill-rule:nonzero;stroke:none" d="m 0,0 c -9.609,8.418 -17.994,18.144 -27.268,26.92 -2.586,2.446 -5.228,4.836 -7.96,7.118 -0.457,0.382 -0.922,0.756 -1.384,1.133 -1.068,0.769 -2.127,1.548 -3.223,2.28 -1.282,0.855 -2.586,1.675 -3.921,2.445 -1.21,0.698 -2.979,1.221 -4.129,2.074 -0.154,0.053 -0.307,0.11 -0.463,0.16 -1.308,0.415 -2.635,0.738 -3.978,1.017 -3.174,0.657 -5.865,2.165 -8.048,4.204 -5.485,0.026 -9.903,3.373 -11.941,8.023 -0.391,0.034 -0.787,0.059 -1.19,0.059 -6.401,0 -12.54,-5.165 -13.272,-11.579 -1.278,-0.245 -2.564,-0.477 -3.854,-0.757 -5.497,-1.195 -10.895,-3.397 -15.607,-6.444 -2.135,-1.379 -4.162,-2.929 -6.078,-4.606 -2.024,-0.586 -4.025,-1.416 -5.968,-2.517 -19.848,-11.245 -36.193,-27.113 -48.918,-45.951 -0.947,-1.402 -1.699,-2.906 -2.28,-4.474 -5.569,-1.321 -10.293,-6.312 -10.467,-12.167 -0.044,-0.115 -0.092,-0.229 -0.132,-0.346 -7.004,-4.735 -11.529,-13.108 -9.807,-21.675 -2.249,-1.578 -4.047,-3.795 -4.994,-6.346 -2.619,-2.019 -4.543,-4.925 -5.061,-8.193 -4.466,-2.215 -7.808,-6.8 -7.578,-11.941 0.007,-0.151 0.029,-0.298 0.04,-0.447 -3.865,-1.228 -6.178,-4.419 -6.953,-8 -4.118,-6.617 -1.103,-17.715 9.091,-17.715 6.058,0 9.578,3.937 10.576,8.518 0.82,1.312 1.361,2.799 1.618,4.343 5.854,0.497 11.253,5.187 12.184,11.029 3.104,1.539 5.662,4.228 6.859,7.454 1.199,0.924 2.256,2.031 3.096,3.279 2.708,-0.364 5.53,-0.16 8.347,0.757 8.509,2.77 15.227,7.461 21.809,13.429 0.932,0.846 1.854,1.701 2.779,2.553 4.886,1.103 9.435,3.599 13.269,7.292 2.012,-0.637 4.167,-0.983 6.433,-0.983 7.802,0 15.379,4.717 19.181,11.473 5.58,-1.163 11.159,-1.002 16.739,0.498 4.173,1.17 7.955,3.01 11.364,5.489 2.77,-0.255 5.541,-0.085 8.311,0.536 4.719,0.214 9.114,1.616 13.184,4.208 2.954,1.728 5.846,4.129 8.382,6.923 10.753,0.386 21.573,2.24 31.729,5.341 6.623,2.022 12.772,5.841 17.374,11.048 C 5.01,-3.557 2.296,-2.012 0,0"/>
        </g>
        <g transform="translate(420.1464,648.9093)" id="g50">
          <path id="path52" style="fill:#d8bead;fill-opacity:1;fill-rule:nonzero;stroke:none" d="m 0,0 c -11.119,1.651 -21.13,-2.811 -31.524,-6.224 -3.416,-1.122 -6.115,-3.645 -7.414,-6.77 -0.558,-0.022 -1.122,-0.113 -1.685,-0.305 -3.17,-1.079 -6.244,-2.476 -9.029,-4.344 -3.075,-2.063 -4.709,-6.346 -2.544,-9.703 1.976,-3.066 6.409,-4.756 9.704,-2.545 1.067,0.716 2.164,1.376 3.311,1.956 0.124,0.063 0.404,0.213 0.655,0.35 0.536,0.243 1.125,0.422 1.674,0.608 0.607,0.207 1.187,0.494 1.728,0.841 2.72,-2.016 6.266,-2.904 9.589,-1.812 l 11.568,3.798 c 2.034,0.669 6.448,2.653 7.978,2.426 6.01,-0.892 12.107,1.5 13.857,7.867 C 9.327,-8.546 6.055,-0.899 0,0"/>
        </g>
        <g transform="translate(448.1176,698.3109)" id="g54">
          <path id="path56" style="fill:#d8bead;fill-opacity:1;fill-rule:nonzero;stroke:none" d="m 0,0 c -4.504,-0.558 -9.008,-1.115 -13.512,-1.673 -3.864,-0.478 -7.693,-0.785 -11.273,-2.284 -1.324,0.275 -2.713,0.355 -4.172,0.218 -4.217,-0.398 -7.677,-2.784 -11.605,-4.113 -4.038,-1.366 -8.918,-1.336 -11.336,-5.472 -2.581,-4.413 0.077,-10.32 4.822,-11.792 3.848,-1.194 7.262,1.01 11.113,1.005 4.405,-0.006 8.279,1.123 11.849,3.723 0.513,0.374 0.994,0.721 1.466,1.055 1.782,0.264 3.433,1.225 4.629,2.564 0.875,0.312 1.821,0.558 2.917,0.714 5.018,0.714 10.071,1.247 15.102,1.87 3.801,0.471 7.092,2.923 7.092,7.093 C 7.092,-3.625 3.827,0.474 0,0"/>
        </g>
        <g transform="translate(336.5251,649.5751)" id="g58">
          <path id="path60" style="fill:#d8bead;fill-opacity:1;fill-rule:nonzero;stroke:none" d="m 0,0 c -2.429,1.953 -3.894,3.835 -5.407,6.514 -1.609,2.85 -3.576,4.542 -5.846,6.809 -2.219,2.215 -3.359,4.528 -6.068,6.385 -2.812,1.927 -5.836,3.603 -8.745,5.374 -7.818,4.76 -14.954,-7.502 -7.16,-12.248 2.502,-1.524 5.262,-2.909 7.61,-4.656 2.182,-1.623 3.428,-4.019 5.547,-5.811 1.938,-1.64 2.653,-3.759 4.072,-5.842 1.696,-2.49 3.621,-4.67 5.967,-6.555 2.983,-2.398 7.115,-2.915 10.03,0 2.482,2.482 3.001,7.618 0,10.03"/>
        </g>
        <g transform="translate(362.0277,696.2831)" id="g62">
          <path id="path64" style="fill:#d8bead;fill-opacity:1;fill-rule:nonzero;stroke:none" d="m 0,0 c -0.622,0.231 -1.234,0.484 -1.841,0.751 2.863,4.889 0.384,11.602 -5.59,12.41 -4.264,0.576 -9.319,-2.924 -13.105,-4.643 -4.11,-1.866 -4.547,-8.275 -1.435,-11.139 5.358,-4.934 11.384,-8.529 18.2,-11.057 3.592,-1.332 7.772,1.488 8.725,4.953 C 6.043,-4.759 3.605,-1.337 0,0"/>
        </g>
        <g transform="translate(306.0291,602.7203)" id="g66">
          <path id="path68" style="fill:#d8bead;fill-opacity:1;fill-rule:nonzero;stroke:none" d="m 0,0 c -6.963,8.344 -15.13,19.187 -26.125,22.08 -6.395,1.683 -12.64,-7.162 -6.901,-11.854 1.357,-1.11 2.073,-4.209 3.184,-5.838 1.531,-2.244 3.283,-4.39 5.03,-6.467 3.526,-4.193 7.449,-7.994 11.669,-11.484 2.949,-2.44 7.142,-2.889 10.03,0 0.649,0.648 1.157,1.468 1.508,2.368 0.597,0.314 1.143,0.703 1.605,1.165 2.913,2.913 2.462,7.08 0,10.03"/>
        </g>
        <g transform="translate(380.2025,593.5173)" id="g70">
          <path id="path72" style="fill:#d8bead;fill-opacity:1;fill-rule:nonzero;stroke:none" d="m 0,0 c -1.816,0.872 -3.787,0.962 -5.825,0.596 -3.503,0.451 -7.014,1.032 -10.455,0.207 -4.279,-1.027 -8.473,-3.194 -12.553,-4.827 -2.301,-0.92 -4.15,-2.636 -4.877,-4.811 -2.622,-0.307 -5.291,-0.343 -8.031,-0.003 -3.807,0.473 -7.092,-3.598 -7.092,-7.092 0,-4.227 3.273,-6.618 7.092,-7.093 7.084,-0.88 14.291,0.357 21.023,2.61 5.436,1.819 10.592,4.745 15.991,6.686 0.356,-0.141 0.726,-0.266 1.131,-0.353 3.323,-0.708 6.106,0.539 8.01,3.26 0.084,0.12 0.168,0.24 0.252,0.36 C 7.558,-6.328 4.325,-1.08 0,0"/>
        </g>
      </g>
    </g>
    <g id="g74">
      <g clip-path="url(#clipPath80)" id="g76">
        <g transform="translate(212.5338,642.3051)" id="g82">
          <path id="path84" style="fill:#402213;fill-opacity:1;fill-rule:nonzero;stroke:none" d="M 0,0 C -0.031,0.65 0.042,1.153 0.192,1.567 -1.062,0.587 -2.305,-0.407 -3.533,-1.42 -3.055,-1.492 -2.54,-1.67 -1.973,-1.98 -1.716,-2.121 0.032,-0.663 0,0"/>
        </g>
        <g transform="translate(756.8595,406.0249)" id="g86">
          <path id="path88" style="fill:#402213;fill-opacity:1;fill-rule:nonzero;stroke:none" d="m 0,0 c -0.273,-8.007 -0.223,-16.042 -0.939,-24.008 -0.237,-2.634 -1.777,-6.07 -3.845,-7.425 -4.059,-2.661 -4.981,-6.777 -6.172,-10.578 -1.277,-4.08 -3.22,-7.447 -5.914,-10.652 -3.063,-3.644 -5.358,-8.016 -8.738,-11.296 -8.377,-8.129 -17.1,-15.909 -25.867,-23.622 -2.507,-2.205 -5.639,-3.699 -8.484,-5.519 -6.238,-4.189 -12.051,-8.058 -17.961,-11.773 -3.535,-2.221 -7.224,-4.196 -10.833,-6.3 -0.32,-0.186 -0.632,-0.772 -0.83,-0.72 -6.78,1.758 -11.612,-3.771 -17.678,-4.776 -1.729,-0.286 -3.291,-1.973 -4.789,-3.189 -6.424,-5.213 -14.27,-7.547 -21.63,-10.882 -4.212,-1.909 -8.396,-3.936 -12.386,-6.264 -6.387,-3.725 -13.106,-6.251 -20.452,-7.279 -2.432,-0.341 -4.706,-1.701 -7.134,-2.193 -5.917,-1.198 -11.587,-2.897 -17.011,-5.685 -2.909,-1.495 -6.382,-1.875 -9.578,-2.834 -1.356,-0.406 -2.847,-0.748 -3.947,-1.564 -4.963,-3.686 -11.143,-3.406 -16.667,-5.237 -3.193,-1.058 -6.715,-1.129 -10.09,-1.635 -8.564,-1.284 -17.113,-2.675 -25.696,-3.814 -8.78,-1.164 -17.571,-2.398 -26.397,-3.018 -9.218,-0.647 -18.487,-0.879 -27.727,-0.769 -7.735,0.092 -15.455,1.12 -23.193,1.379 -4.279,0.143 -8.598,-0.793 -12.873,-0.617 -6.816,0.282 -13.612,1.072 -20.414,1.681 -0.956,0.086 -1.889,0.416 -2.845,0.536 -8.284,1.04 -16.565,2.114 -24.86,3.058 -3.591,0.409 -7.211,0.591 -10.823,0.784 -10.162,0.541 -20.323,1.11 -30.491,1.515 -4.82,0.191 -9.656,0.142 -14.48,0.012 -14.869,-0.399 -29.268,2.461 -43.412,6.569 -8.411,2.443 -16.553,5.798 -24.871,8.58 -5.299,1.773 -11.027,2.573 -15.985,4.994 -11.08,5.41 -23.392,8.356 -33.27,16.102 -2.304,1.806 -4.629,2.865 -7.266,3.893 -2.117,0.825 -3.728,2.955 -5.557,4.515 -1.09,0.929 -2.017,2.257 -3.275,2.75 -6.911,2.712 -12.595,7.02 -18.226,11.848 -5.66,4.852 -9.605,11.083 -14.987,16.053 -1.643,1.517 -3.483,2.824 -5.087,4.378 -2.379,2.302 -4.717,4.43 -5.451,8.135 -0.987,4.981 -3.131,9.719 -4.433,14.652 -2.286,8.662 -2.778,17.408 -2.866,26.445 -0.062,6.377 2.018,13.372 -1.519,19.813 -1.048,1.908 0.223,4.954 -0.364,7.277 -1.219,4.824 -3.511,9.423 -4.327,14.289 -0.623,3.71 0.401,7.684 0.594,11.546 0.173,3.464 0.07,6.946 0.345,10.4 0.407,5.122 1.041,10.225 1.579,15.336 0.379,3.602 0.81,7.199 1.125,10.807 0.8,9.158 1.331,18.344 2.366,27.475 1.599,14.107 5.698,27.361 13.912,39.205 2.133,3.075 3.057,6.967 5.033,10.178 2.915,4.736 6.515,9.053 9.39,13.811 4.562,7.55 8.556,15.447 13.21,22.937 2.392,3.851 5.594,7.224 8.604,10.662 4.716,5.387 9.403,10.819 14.435,15.903 3.947,3.988 8.537,7.334 12.59,11.226 5.137,4.935 10.041,10.114 15.007,15.226 2.823,2.906 5.449,6.011 8.368,8.813 10.658,10.228 22.061,19.43 35,26.763 6.921,3.923 13.131,9.082 19.833,13.42 3.682,2.383 7.718,4.22 11.595,6.303 0.105,0.056 0.265,0.178 0.313,0.145 4.107,-2.862 4.247,1.521 6.251,3.028 2.341,1.758 5.687,2.893 8.638,2.985 7.446,0.234 14.183,2.673 20.799,5.583 4.205,1.85 6.439,-1.566 9.288,-3.039 5.295,-2.737 9.275,-7.163 13.227,-11.546 1.69,-1.874 3.303,-3.514 6.386,-3.324 1.764,0.108 3.617,-1.579 5.464,-2.381 2.958,-1.284 6.611,-0.205 8.064,2.543 0.275,0.52 -0.177,1.882 -0.722,2.307 -4.037,3.156 -8.115,6.271 -12.314,9.208 -4.344,3.038 -8.866,5.818 -13.237,8.818 -0.741,0.509 -1.11,1.559 -1.651,2.358 0.738,0.383 1.458,0.806 2.217,1.142 3.463,1.535 6.942,3.033 10.405,4.567 4.322,1.914 7.084,0.347 7.281,-4.588 0.128,-3.195 0.515,-6.044 2.75,-8.528 0.537,-0.597 0.404,-1.902 0.378,-2.876 -0.049,-1.823 0.148,-2.964 2.498,-3.336 1.324,-0.209 2.36,-2.102 3.582,-3.171 0.455,-0.398 1.073,-0.61 1.616,-0.908 0.262,0.533 0.716,1.051 0.755,1.599 0.625,8.771 -1.183,16.982 -6.011,24.389 -1.55,2.377 -0.79,5.265 2.014,4.963 4.316,-0.466 8.757,2.774 12.951,-0.509 0.482,-0.378 1.677,0.059 2.514,0.243 7.628,1.675 15.214,3.576 22.888,5.001 4.84,0.898 9.818,1.598 14.72,1.514 14.01,-0.242 28.103,-0.121 41.997,-1.653 16.342,-1.802 32.665,-1.775 49.019,-2.275 5.257,-0.161 10.536,-2.169 15.651,-3.811 7.065,-2.27 14.137,-2.987 21.53,-2.255 2.863,0.284 5.762,0.342 8.594,-0.164 4.083,0.139 8.069,0.802 12.029,1.845 0.89,0.235 1.687,0.185 2.378,-0.054 0.228,0.149 0.453,0.298 0.681,0.446 0.3,0.195 0.597,0.341 0.89,0.45 0.389,0.246 0.776,0.423 1.154,0.527 3.581,3.042 11.294,5.79 14.492,4.665 0.232,-0.082 0.403,-1.418 0.122,-1.717 -2.969,-3.154 -6.266,-5.768 -9.828,-7.969 -0.177,-1.018 -0.746,-1.993 -1.834,-2.711 -0.651,-0.43 -1.312,-0.811 -1.978,-1.17 -4.751,-3.107 -9.442,-6.254 -14.346,-9.116 -0.272,-0.25 -0.553,-0.489 -0.854,-0.701 -2.687,-1.902 -5.458,-3.517 -8.412,-4.869 -1.728,-2.894 -5.143,-3.956 -8.87,-4.747 -0.685,-0.145 -1.414,-0.381 -1.972,-0.783 -6.615,-4.772 -13.271,-9.49 -19.764,-14.425 -2.89,-2.197 -5.416,-4.87 -8.141,-7.29 -6.644,-5.901 -13.464,-11.614 -19.924,-17.708 -8.081,-7.623 -14.091,-16.859 -19.636,-26.422 -2.051,-3.538 -4.837,-6.684 -6.622,-10.334 -2.542,-5.198 -4.351,-10.748 -6.702,-16.046 -1.492,-3.36 -3.256,-6.621 -5.147,-9.778 -5.947,-9.933 -7.774,-21.182 -10.591,-32.134 -0.701,-2.721 -1.976,-5.337 -3.27,-7.856 -3.419,-6.663 -6.986,-13.25 -10.517,-19.855 -0.396,-0.742 -0.998,-1.374 -1.392,-2.117 -0.609,-1.15 -1.12,-2.352 -1.672,-3.532 1.237,-0.526 2.434,-1.361 3.717,-1.525 7.112,-0.907 11.375,3.299 15.269,8.461 2.402,3.184 5.189,6.125 8.086,8.877 4.634,4.4 9.245,8.895 14.335,12.727 7.141,5.377 14.717,10.175 22.097,15.237 5.688,3.902 11.24,8.02 17.073,11.692 5.851,3.685 11.863,7.152 18.011,10.314 5.36,2.757 10.921,5.177 16.548,7.345 7.075,2.727 14.345,4.947 21.456,7.585 3.321,1.233 6.376,3.195 9.711,4.378 10.617,3.764 21.225,7.595 31.996,10.876 11.747,3.579 23.659,6.627 35.534,9.774 2.466,0.653 5.081,0.801 7.642,0.988 0.298,0.022 0.703,-0.366 1.017,-0.801 1.11,0.174 2.308,-0.075 3.381,-0.968 0.121,-0.101 0.242,-0.182 0.363,-0.274 -0.318,0.572 -0.679,1.122 -1.021,1.681 0.698,0.146 1.406,0.256 2.093,0.443 2.415,0.658 4.841,1.285 7.227,2.038 1.576,0.498 3.108,1.752 4.63,1.705 7.673,-0.238 13.86,3.541 20.221,6.953 0.722,0.387 1.542,0.674 2.349,0.798 0.776,0.119 1.594,-0.034 2.394,-0.067 -0.261,-0.709 -0.462,-1.447 -0.792,-2.122 -3.198,-6.56 -5.919,-13.131 -3.596,-20.725 0.909,-2.973 0.767,-6.314 1.725,-9.227 1.512,-0.636 2.874,-1.567 3.938,-2.827 12.735,-15.079 25.388,-31.097 34.416,-48.795 3.377,-3.814 6.274,-8.016 8.639,-12.52 0.006,0.031 0.011,0.062 0.018,0.093 0.526,-1.183 1.19,-2.332 1.654,-3.531 0.674,-1.5 1.298,-3.025 1.854,-4.582 0.657,-1.836 0.759,-3.687 0.454,-5.459 0.569,-2.665 1.189,-5.312 2.027,-7.89 3.442,-10.589 7.33,-21.035 11.157,-31.495 0.876,-2.392 1.231,-4.563 0.538,-6.487 1.401,-7.945 2.173,-16.036 3.231,-24.154 0.059,-0.455 0.085,-0.903 0.079,-1.344 0.818,-3.19 1.428,-6.435 1.181,-9.89 C -0.268,32.002 0.728,26.391 0.709,20.818 0.685,13.878 0.237,6.94 0,0 m -564.996,217.467 c 0.01,-1.035 0.021,-2.07 0.031,-3.106 -0.886,0.395 -1.388,1.174 -1.89,1.953 0.62,0.385 1.239,0.769 1.859,1.153 m 120.36,74.154 c 3.397,2.929 7.442,3.924 11.818,3.769 0.166,-0.006 0.298,-0.961 0.446,-1.473 -4.326,-1.281 -7.873,-2.593 -11.453,-3.809 -0.526,-0.179 -1.209,0.103 -1.819,0.171 0.332,0.452 0.594,0.985 1.008,1.342 m 24.943,8.452 c 1.258,0.137 2.513,0.301 3.77,0.455 -0.14,-0.41 -0.289,-1.179 -0.417,-1.176 -1.631,0.046 -3.258,0.202 -4.886,0.33 0.767,0.384 1.154,0.349 1.533,0.391 m 196.395,12.292 c -0.163,-0.769 -0.711,-1.153 -1.258,-1.538 -0.221,0.344 -0.443,0.687 -0.664,1.031 0.641,0.169 1.281,0.338 1.922,0.507 M 15.444,24.58 c -1.065,7.742 -2.057,15.5 -3.281,23.216 -0.665,0.755 -1.211,1.566 -1.278,2.366 -0.171,2.06 -0.209,4.132 -0.202,6.207 -0.621,3.31 -1.304,6.609 -2.08,9.89 -1.616,6.837 -2.587,13.703 -2.979,20.683 -2.57,2.075 -2.819,5.727 -4.168,8.743 -3.666,8.191 -4.849,16.788 -5.378,25.603 -0.101,1.696 -0.741,3.753 -1.879,4.905 -1.303,1.32 -1.349,2.56 -0.834,3.552 -1.702,3.319 -3.247,6.712 -4.485,10.248 -0.47,0.511 -0.916,1.039 -1.321,1.598 -2.168,2.991 -3.898,6.303 -5.765,9.507 -2.101,3.603 -5.397,6.669 -4.934,11.444 0.076,0.779 -0.779,1.713 -1.337,2.478 -2.231,3.057 -4.532,6.063 -6.775,9.113 -2.669,3.628 -5.356,7.244 -7.943,10.93 -5.983,8.524 -9.919,18.737 -19.936,23.922 -0.691,0.358 -1.454,1.276 -1.532,2.003 -0.367,3.451 -1.294,7.104 -0.558,10.354 1.276,5.631 3.581,11.035 5.55,16.5 1.38,3.832 0.379,5.565 -3.707,5.275 -3.75,-0.266 -7.756,-0.408 -11.127,-1.839 -7.73,-3.28 -16.6,-4.127 -23.008,-10.364 -0.468,-0.456 -1.279,-0.671 -1.965,-0.775 -6.543,-0.985 -13.476,0.533 -19.62,-3.073 -0.286,-0.168 -0.758,-0.046 -1.14,-0.018 -8.619,0.625 -16.488,-2.561 -24.419,-5.088 -9.026,-2.875 -17.895,-6.256 -26.782,-9.553 -3.546,-1.315 -6.893,-3.172 -10.451,-4.446 -3.025,-1.084 -6.344,-1.379 -9.321,-2.558 -9.682,-3.834 -19.254,-7.945 -28.894,-11.887 -5.477,-2.241 -11.558,-3.537 -16.354,-6.764 -4.862,-3.269 -9.702,-6.12 -15.221,-7.934 -1.685,-0.554 -3.483,-1.001 -4.954,-1.932 -8.744,-5.531 -17.46,-11.112 -26.072,-16.844 -3.461,-2.303 -6.788,-4.864 -9.892,-7.626 -2.404,-2.139 -4.299,-4.838 -6.54,-7.173 -3.074,-3.202 -6.26,-6.296 -9.405,-9.43 -0.336,-0.334 -0.721,-0.617 -1.084,-0.925 -0.356,0.493 -0.981,0.971 -1.009,1.482 -0.044,0.807 0.198,1.683 0.516,2.448 5.683,13.658 11.396,27.305 17.294,41.146 0.577,0.692 1.075,1.14 1.329,1.699 4.913,10.807 11.275,20.785 17.721,30.698 7.754,11.926 15.165,24.205 25.829,33.83 5.691,5.136 12.281,9.266 18.376,13.966 8.595,6.626 18.134,11.518 28.059,15.774 3.592,1.54 6.958,3.625 10.588,5.051 2.057,0.809 3.594,1.753 5.118,3.455 1.607,1.794 2.763,5.249 6.532,3.751 10.119,-4.025 20.357,-7.769 30.353,-12.074 4.085,-1.76 7.185,-5.066 10.488,-8.282 6.857,-6.676 15.558,-11.427 21.968,-18.739 3.457,-3.944 6.236,-8.479 9.649,-12.467 1.141,-1.334 3.297,-1.801 4.989,-2.664 0.58,1.438 1.395,2.832 1.675,4.327 0.279,1.485 0.015,2.968 2.028,1.106 0.281,-0.26 1.161,0.127 1.764,0.215 -0.217,0.518 -0.314,1.147 -0.672,1.535 -1.558,1.685 -3.407,3.14 -4.764,4.966 -7.346,9.886 -16.387,17.94 -26.484,24.875 -5.578,3.831 -10.984,7.982 -16.864,11.281 -4.711,2.643 -10.035,4.184 -15.058,6.283 -2.949,1.233 -5.855,2.571 -8.754,3.917 -3.287,1.527 -3.87,4.476 -1.615,7.472 1.085,1.443 1.957,3.044 3.014,4.508 1.648,2.281 2.672,5.364 4.818,7.045 0.618,1.304 1.46,2.498 2.471,3.541 -0.148,-0.025 -0.297,-0.051 -0.445,-0.074 0.479,1.056 0.734,2.323 1.487,3.121 1.35,1.432 3.132,2.464 4.437,3.928 0.358,0.402 -0.345,2.539 -0.552,2.537 -3.652,-0.025 -7.368,0.754 -10.619,-2.18 -2.172,-1.96 -4.919,-3.58 -7.69,-4.508 -4.081,-1.366 -8.456,-1.82 -12.628,-2.948 -8.225,-2.224 -16.273,-2.928 -24.465,0.463 -7.323,3.032 -15.048,5.961 -23.008,4.493 -8.325,-1.534 -16.53,-1.973 -24.894,-1.369 -4.883,0.353 -9.823,0.205 -14.658,0.861 -7.812,1.058 -15.665,2.165 -23.299,4.062 -6.232,1.548 -12.127,3.274 -18.256,-0.116 -0.985,-0.544 -2.661,-0.55 -3.733,-0.111 -7.447,3.049 -15.011,0.829 -22.513,0.653 -2.671,-0.063 -5.341,-0.627 -7.989,-1.088 -3.33,-0.578 -6.762,-0.93 -9.918,-2.041 -2.945,-1.037 -5.352,-2.118 -8.919,-1.764 -5.048,0.503 -10.309,-1.361 -15.501,-2.045 -5.686,-0.75 -11.388,-1.388 -17.094,-1.968 -1.97,-1.17 -4.202,-1.819 -6.471,-1.658 -0.933,0.102 -1.868,0.132 -2.806,0.091 -0.181,-0.039 -0.383,-0.081 -0.63,-0.133 -1.249,-0.337 -2.465,-0.71 -3.675,-1.153 -0.072,-0.064 -2.401,-1.052 -2.653,-1.169 -0.253,-0.118 -0.505,-0.238 -0.757,-0.356 0.639,-0.425 1.408,-0.704 2.102,-1.068 -1.019,-0.324 -2.025,-0.701 -3.059,-0.962 -3.483,-0.879 -6.999,-1.637 -10.46,-2.595 -2.973,-0.822 -5.875,-1.903 -8.834,-2.784 -3.996,-1.189 -8.247,-1.811 -11.963,-3.575 -3.884,-1.844 -7.144,-4.955 -10.887,-7.154 -5.767,-3.389 -11.586,-6.7 -17.476,-9.87 -0.457,-0.564 -1.089,-1.03 -1.923,-1.32 -0.625,-0.217 -1.242,-0.458 -1.86,-0.693 -0.198,-0.103 -0.393,-0.211 -0.591,-0.314 -1.248,-0.651 -2.611,-1.198 -4.012,-1.6 -1.951,-0.887 -3.876,-1.85 -5.777,-2.876 0.552,0.024 1.137,-0.05 1.695,-0.044 -0.641,-0.591 -1.281,-1.183 -1.922,-1.774 -0.977,-0.148 -1.743,-0.085 -2.459,0.029 -0.615,-0.589 -1.428,-1.012 -2.44,-1.145 -5.307,-3.196 -10.456,-6.756 -15.529,-10.311 0.234,-0.53 0.34,-0.937 0.216,-1.026 -2.827,-2.044 -5.75,-3.955 -8.562,-6.018 -1.399,-1.027 -2.496,-2.504 -3.965,-3.386 -0.893,-0.535 -2.235,-0.323 -3.375,-0.446 0.03,0.065 0.058,0.135 0.086,0.203 -0.163,-0.11 -0.324,-0.22 -0.487,-0.33 -2.573,-2.326 -5.197,-4.483 -7.966,-6.236 -0.704,-0.445 -1.398,-0.647 -2.052,-0.661 -2.368,-1.68 -4.718,-3.383 -7.025,-5.139 0.218,0.062 0.45,0.119 0.697,0.174 1.187,0.264 2.052,1.792 3.253,2.245 0.463,0.174 0.699,0.247 0.787,0.148 0.501,-0.568 -5.168,-5.397 -11.829,-12.624 -0.732,-0.795 -2.241,-2.284 -4.592,-3.715 -1.38,-0.84 -3.072,-1.169 -4.626,-1.724 -0.013,0.045 -0.037,0.1 -0.054,0.148 -0.935,-0.492 -1.843,-1.054 -2.727,-1.668 -0.402,-0.43 -0.806,-0.858 -1.201,-1.297 -0.628,-0.697 -1.326,-1.082 -2.03,-1.235 -2.412,-2.097 -4.626,-4.44 -6.674,-6.577 -5.557,-5.802 -10.608,-12.056 -15.747,-18.223 -5.455,-6.544 -11.363,-12.679 -16.782,-19.257 0.021,-0.233 0.019,-0.453 -10e-4,-0.662 -0.247,-2.65 -3.399,-4.248 -4.2,-4.629 -4.565,-5.941 -8.808,-12.123 -12.672,-18.541 -1.207,-3.16 -2.455,-6.312 -4.051,-9.337 -1.058,-2.006 -1.901,-3.468 -3.029,-4.423 -0.763,-1.649 -1.554,-3.285 -2.36,-4.913 0.127,-0.091 0.239,-0.181 0.348,-0.272 -0.2,-0.076 -0.399,-0.153 -0.599,-0.23 -4.287,-8.615 -8.967,-17.03 -12.259,-26.069 -1.089,-4.553 -2.179,-9.109 -3.079,-13.7 -2.035,-10.388 -8.065,-19.557 -8.128,-30.687 -0.049,-8.635 -2.34,-17.226 -1.337,-26.018 1.304,-11.424 -2.496,-23.202 2.343,-34.397 -1.064,-9.567 1.295,-18.858 2.37,-28.244 0.364,-3.187 0.958,-6.543 2.357,-9.372 1.513,-3.056 1.763,-6.193 1.614,-9.288 0.554,-1.448 0.842,-2.982 0.752,-4.536 -0.081,-1.417 -0.099,-2.822 -0.023,-4.24 0.038,-0.656 0.096,-1.311 0.162,-1.965 0.017,-0.107 0.033,-0.208 0.054,-0.336 0.068,-0.342 0.141,-0.682 0.211,-1.023 1.3,-1.918 3.411,-4.031 2.987,-5.373 -1.287,-4.066 1.227,-6.936 1.743,-10.354 0.041,-0.271 0.088,-0.538 0.136,-0.804 0.077,-0.2 0.151,-0.402 0.228,-0.603 0.038,-0.092 0.066,-0.162 0.099,-0.243 0.289,-0.653 0.585,-1.302 0.889,-1.948 0.591,-1.25 1.219,-2.479 1.871,-3.699 0.532,-0.994 0.921,-2.013 1.201,-3.038 0.913,-1.082 1.969,-2.087 3.192,-3.008 1.206,-0.908 2.218,-2.107 3.204,-3.27 3.84,-4.524 7.178,-9.595 11.549,-13.519 7.116,-6.391 14.676,-12.349 22.464,-17.909 6.517,-4.653 13.637,-8.458 20.467,-12.676 2.051,-1.267 3.961,-2.77 6.05,-3.966 2.366,-1.354 4.799,-2.629 7.311,-3.679 4.695,-1.962 9.498,-3.666 14.201,-5.611 3.937,-1.628 7.724,-3.635 11.703,-5.142 8.198,-3.106 16.433,-6.129 24.744,-8.913 4.97,-1.665 10.07,-3.002 15.187,-4.148 7.183,-1.608 14.423,-2.972 21.662,-4.308 7.991,-1.476 15.964,-3.387 24.03,-4.019 7.259,-0.568 14.639,0.634 21.957,0.51 6.968,-0.118 13.919,-1.03 20.888,-1.399 2.17,-0.115 4.417,0.797 6.552,0.557 7.167,-0.807 14.284,-2.065 21.453,-2.835 2.401,-0.258 4.921,0.756 7.356,0.621 5.48,-0.302 11.076,-0.387 16.366,-1.645 4.526,-1.077 8.853,-0.678 13.306,-0.653 3.992,0.022 7.984,-0.58 11.98,-0.658 2.066,-0.04 4.147,0.7 6.213,0.663 3.528,-0.063 7.052,-0.445 10.575,-0.718 6.45,-0.502 12.897,-1.396 19.348,-1.423 5.678,-0.023 11.403,1.6 17.029,1.248 6.668,-0.417 12.815,1.599 19.191,2.477 3.306,0.455 6.493,1.73 9.793,2.27 7.111,1.164 14.246,2.212 21.401,3.059 2.949,0.349 5.981,-0.07 8.962,0.095 2.863,0.159 5.771,0.364 8.544,1.03 2.387,0.573 4.59,1.879 6.913,2.761 2.216,0.841 4.494,1.518 6.722,2.328 5.678,2.064 11.348,4.149 17.012,6.249 3.996,1.482 7.999,2.952 11.958,4.531 1.537,0.613 2.88,1.838 4.449,2.225 7.458,1.838 14.972,3.448 22.445,5.227 1.364,0.324 3.313,0.697 3.822,1.663 1.83,3.481 5.097,4.009 8.28,5.145 2.208,0.788 4.126,2.413 6.136,3.722 1.322,0.862 2.529,2.536 3.869,2.627 6.868,0.464 12.268,4.488 18.251,7.066 1.96,0.844 3.88,3.024 5.635,2.841 3.861,-0.404 6.244,1.732 9.067,3.439 1.598,0.967 3.587,1.274 5.229,2.185 2.725,1.513 5.342,3.227 7.931,4.966 0.536,0.36 0.641,1.628 1.129,1.752 5.206,1.33 7.91,7.506 13.969,7.194 0.429,-0.022 0.878,0.872 1.36,1.291 1.77,1.537 3.441,3.224 5.368,4.533 2.159,1.465 4.784,2.293 6.808,3.9 8.051,6.394 16.368,12.51 22.971,20.54 1.12,1.362 2.737,2.355 3.695,3.802 3.643,5.51 7.146,11.113 10.619,16.732 0.993,1.608 1.667,3.409 2.554,5.086 1.667,3.155 2.649,7.299 5.254,9.183 3.67,2.655 5.385,6.511 5.852,9.864 0.417,2.996 1.246,5.789 1.952,8.661 0.258,1.046 0.589,2.081 0.755,3.142 0.549,3.497 1.159,6.991 1.523,10.509 0.533,5.163 3.31,10.133 1.34,15.537 -0.214,0.587 0.058,1.468 0.356,2.093 0.31,0.651 1.315,1.138 1.342,1.728 0.14,3.068 -0.02,6.149 0.084,9.22 0.032,0.96 0.046,1.924 0.056,2.89"/>
        </g>
        <path id="path90" style="fill:#402213;fill-opacity:1;fill-rule:nonzero;stroke:none" d="M 0,0 Z"/>
        <path id="path92" style="fill:#402213;fill-opacity:1;fill-rule:nonzero;stroke:none" d="M 0,0 Z"/>
        <g transform="translate(179.4041,264.3072)" id="g94">
          <path id="path96" style="fill:#402213;fill-opacity:1;fill-rule:nonzero;stroke:none" d="m 0,0 c -0.779,0.139 -1.366,0.469 -1.953,0.8 0.18,0.182 0.47,0.548 0.522,0.517 C -0.868,0.978 -0.343,0.576 0,0"/>
        </g>
        <g transform="translate(583.1396,443.9801)" id="g98">
          <path id="path100" style="fill:#402213;fill-opacity:1;fill-rule:nonzero;stroke:none" d="m 0,0 c -0.067,1.636 -0.1,3.921 0.067,6.64 0.553,9.024 3.145,13.216 4.552,18.823 2.02,8.05 12.813,10.524 18.521,6.52 2.85,-1.999 6.369,-3.089 9.66,-4.402 1.266,-0.505 2.977,-2.906 6.281,-11.77 2.502,-6.714 3.754,-10.07 4.05,-13.461 0.195,-2.228 0.788,-10.31 -4.058,-18.364 -1.509,-2.507 -5.83,-9.689 -13.067,-10.757 -1.318,-0.195 -2.365,-0.412 -3.744,-0.026 -4.422,1.238 -8.794,2.884 -12.886,4.953 -1.144,0.579 -1.808,2.233 -3.556,4.942 C 3.432,-13.201 1.341,-9.897 0.435,-5.324 -0.001,-3.13 -0.04,-1.263 0,0"/>
        </g>
        <g transform="translate(270.4467,452.1378)" id="g102">
          <path id="path104" style="fill:#402213;fill-opacity:1;fill-rule:nonzero;stroke:none" d="m 0,0 c -0.007,-0.131 -0.013,-0.262 -0.02,-0.392 m 15.244,12.988 c 7.258,-7.501 10.128,-15.681 5.601,-25.645 -2.295,-5.052 -1.937,-11.358 -6.869,-15.157 -4.662,-3.592 -8.713,-8.843 -15.607,-7.534 -2.852,0.541 -6.047,1.457 -8.145,3.283 -3.428,2.983 -6.552,6.567 -8.912,10.44 -1.729,2.837 -2.996,6.608 -2.785,9.853 0.674,10.375 4.938,19.522 11.942,27.182 5.168,5.652 8.994,5.965 15.945,2.189 2.819,-1.531 5.631,-3.074 8.83,-4.611"/>
        </g>
        <g transform="translate(436.3267,694.5614)" id="g106">
          <path id="path108" style="fill:#402213;fill-opacity:1;fill-rule:nonzero;stroke:none" d="m 0,0 c -0.035,1.677 -0.181,3.894 -1.746,1.534 -3.024,-4.557 -7.37,-4.448 -11.924,-4.675 -2.878,-0.143 -5.537,-2.864 -8.696,-0.775 -0.125,0.082 -1.048,-0.844 -1.448,-1.407 -2.352,-3.31 -9.007,-5.711 -13.096,-5.187 -1.172,0.15 -2.547,-1.275 -3.829,-1.978 0.906,-0.449 1.772,-1.158 2.725,-1.305 5.556,-0.856 11.114,-1.906 16.709,-2.223 3.205,-0.182 6.53,0.696 9.712,1.463 3.923,0.947 7.957,1.844 11.573,3.546 4.627,2.179 9.036,4.922 13.251,7.838 2.951,2.042 5.566,4.643 8.059,7.253 2.043,2.139 4.239,1.668 5.986,0.369 1.92,-1.428 3.216,-4.084 1.268,-6.108 -3.894,-4.046 -8.16,-7.758 -12.474,-11.368 -2.777,-2.325 -5.742,-4.551 -8.938,-6.214 -2.802,-1.458 -5.987,-2.421 -9.112,-2.936 -2.256,-0.371 -4.522,-0.029 -6.015,-2.294 -0.292,-0.442 -0.974,-0.765 -1.529,-0.874 -5.533,-1.09 -10.977,-1.237 -16.42,0.813 -1.678,0.632 -3.763,0.229 -5.661,0.215 -4.492,-0.032 -9.413,-1.805 -12.536,3.408 -0.334,0.558 -1.49,0.62 -2.262,0.921 -1.323,0.515 -2.887,0.746 -3.918,1.611 -3.087,2.59 -3.239,5.605 0.097,7.589 7.043,4.19 14.007,9.17 21.706,11.427 9.274,2.72 18.501,6.797 28.544,6.22 C 2.65,6.713 5.332,6.157 7.8,5.268 9.008,4.832 10.794,2.54 10.59,2.231 9.618,0.759 8.228,-0.704 6.648,-1.433 4.946,-2.218 2.873,-2.232 0.95,-2.48 0.262,-2.569 -0.464,-2.359 -1.173,-2.286 -0.782,-1.652 -0.391,-1.018 0,0"/>
        </g>
        <g transform="translate(304.8869,585.7968)" id="g110">
          <path id="path112" style="fill:#402213;fill-opacity:1;fill-rule:nonzero;stroke:none" d="M 0,0 C 0.411,1.126 0.823,2.252 1.234,3.378 0.552,3.262 -0.246,3.331 -0.788,2.991 -1.842,2.331 -2.752,1.441 -3.721,0.646 -2.609,0.303 -1.497,-0.041 0,0 m 0,9.224 c -0.543,2.08 -0.447,4.779 -1.749,6.126 -3.972,4.107 -8.42,7.765 -12.802,11.457 -3.556,2.996 -7.166,5.959 -10.991,8.589 -1.59,1.094 -3.783,1.357 -5.744,1.825 -0.417,0.099 -1.014,-0.551 -1.528,-0.856 0.418,-0.464 0.746,-1.131 1.267,-1.36 5.181,-2.276 5.362,-7.46 6.936,-11.819 0.686,-1.898 0.842,-4.096 1.901,-5.728 2.251,-3.465 4.074,-7.062 7.324,-10.088 C -7.392,-0.075 -3.908,1.634 0,9.224 M -13.836,-3.459 c -1.877,0.724 -3.514,1.249 -4.839,2.206 -7.516,5.427 -13.09,12.28 -15.133,21.555 -0.901,4.092 -4.36,7.529 -3.151,12.188 0.024,0.092 -0.903,0.616 -1.382,0.608 -0.637,-0.011 -1.268,-0.346 -1.902,-0.541 -0.059,1.04 -0.564,2.438 -0.079,3.041 0.861,1.071 2.257,2.188 3.543,2.344 2.985,0.363 2.02,1.958 1.038,3.07 -1.547,1.751 -3.568,3.078 -5.176,4.784 -0.408,0.433 -0.242,2.255 0.049,2.359 1.793,0.646 4.008,1.811 5.499,1.25 3.084,-1.16 5.725,-3.438 8.691,-4.985 2.932,-1.53 6.107,-2.591 9.05,-4.103 2.865,-1.473 5.892,-2.89 8.277,-4.982 C -5.044,31.558 -1.368,27.059 2.955,23.302 7.435,19.409 8.62,14.081 9.007,8.935 9.439,3.2 8.303,-2.675 7.628,-8.463 7.401,-10.41 6.59,-12 3.859,-12.018 c -2.998,-0.02 -4.941,1.344 -6.671,3.397 -0.093,0.111 0.815,0.858 0.821,1.315 0.007,0.51 -0.451,1.448 -0.763,1.472 -1.826,0.141 -3.734,-0.231 -5.487,0.152 -1.812,0.396 -3.48,1.454 -5.595,2.223"/>
        </g>
        <g transform="translate(321.0286,648.0578)" id="g114">
          <path id="path116" style="fill:#402213;fill-opacity:1;fill-rule:nonzero;stroke:none" d="m 0,0 c 0.724,-0.724 1.342,-1.625 2.193,-2.141 2.956,-1.793 5.915,-3.622 9.054,-5.039 0.767,-0.346 3.129,0.708 3.208,1.32 0.473,3.637 -4.667,10.871 -8.049,12.662 -1.712,0.906 -3.373,2.538 -4.26,4.254 -2.363,4.57 -5.88,7.1 -10.923,7.845 -0.966,0.143 -1.879,1.099 -2.617,1.87 -0.122,0.128 0.804,1.237 1.223,1.906 0.468,0.749 0.91,1.515 1.363,2.273 -1.056,-0.01 -2.132,0.105 -3.163,-0.06 -1.422,-0.229 -2.799,-0.725 -4.215,-1.003 -1.114,-0.22 -2.258,-0.284 -3.389,-0.417 0.451,-0.981 0.698,-2.144 1.386,-2.913 C -12.768,14.487 -8.835,7.063 -1.768,2.472 -1.125,2.055 -0.837,1.093 0,0 m 5.573,21.33 c 1.444,-1.188 2.922,-2 3.908,-3.212 3.836,-4.71 8.904,-8.518 10.861,-14.627 1.339,-4.181 2.903,-8.305 3.945,-12.558 0.295,-1.205 -0.501,-3.187 -1.468,-4.108 -5.661,-5.388 -16.381,-5.426 -22.412,-0.3 -5.097,4.332 -10.304,8.543 -15.253,13.038 -2.684,2.437 -5.238,5.15 -7.24,8.146 -0.922,1.38 -0.378,3.738 -0.499,5.653 -2.063,-0.762 -3.665,-0.646 -4.34,1.914 -0.666,2.525 -1.644,4.975 -2.189,7.522 -0.128,0.597 0.937,1.447 1.449,2.184 0.513,0.737 1.021,1.478 1.531,2.218 -0.73,0.285 -1.671,0.385 -2.13,0.908 -0.453,0.517 -0.815,1.694 -0.53,2.178 1.397,2.378 3.685,2.782 6.218,2.276 0.939,-0.188 2.164,-0.938 2.751,-0.585 5.509,3.307 9.318,-0.083 13.271,-3.11 0.462,-0.355 1.049,-0.773 1.581,-0.776 4.847,-0.025 7.364,-3.659 10.546,-6.761"/>
        </g>
        <g transform="translate(382.3288,641.7164)" id="g118">
          <path id="path120" style="fill:#402213;fill-opacity:1;fill-rule:nonzero;stroke:none" d="m 0,0 c 3.463,2.182 6.507,4.918 10.055,6.002 6.644,2.028 13.552,3.259 20.412,4.47 2.088,0.369 4.401,-0.303 6.564,-0.733 C 37.783,9.59 38.647,8.851 38.966,8.156 39.134,7.791 38.372,6.588 37.794,6.36 34.603,5.1 31.372,3.184 28.092,3.054 20.844,2.766 15.196,-0.831 8.932,-3.712 2.438,-6.7 -2.289,-12.029 -8.708,-14.853 c -0.795,-0.35 -1.249,-1.474 -1.861,-2.239 0.967,-0.26 2.028,-0.918 2.887,-0.715 5.809,1.372 11.544,3.064 17.366,4.37 3.678,0.825 7.511,1.819 11.191,1.558 5.306,-0.377 8.795,2.374 12.495,5.256 5.388,4.196 10.819,8.34 16.287,12.433 1.902,1.424 4.764,0.152 4.211,-1.976 -1.099,-4.224 -0.427,-9.24 -5.606,-11.922 -2.379,-1.233 -3.847,-4.188 -5.789,-6.306 -4.693,-5.12 -9.854,-8.05 -17.358,-5.942 -5.296,1.487 -10.484,-1.569 -15.741,-2.46 -7.503,-1.271 -15.101,-2.149 -22.695,-2.615 -2.732,-0.168 -5.787,0.964 -6.833,4.401 -0.236,0.774 -0.799,1.49 -1.339,2.124 -2.085,2.451 -1.292,4.576 1.381,6.473 4.92,3.493 11.088,4.955 15.246,9.713 1.088,1.246 3.091,1.694 4.866,2.7"/>
        </g>
        <g transform="translate(454.9666,363.9636)" id="g122">
          <path id="path124" style="fill:#402213;fill-opacity:1;fill-rule:nonzero;stroke:none" d="m 0,0 c 4.976,4.976 9.96,9.583 14.435,14.641 1.559,1.762 2.872,4.8 2.525,6.972 -0.722,4.518 -6.421,3.982 -8.926,1.697 C 5.733,21.211 3.981,18.514 1.706,16.38 -2.675,12.272 -6.881,7.77 -11.917,4.66 c -2.329,-1.439 -6.465,-0.203 -9.737,0.187 -6.911,0.825 -13.344,2.988 -18.717,7.648 -0.858,0.744 -1.779,1.456 -2.48,2.335 -2.659,3.34 -5.184,6.788 -7.872,10.105 -1.625,2.006 -3.474,2.193 -5.512,0.338 -4.16,-3.787 -4.046,-6.087 -0.594,-10.496 2.626,-3.355 4.419,-7.36 6.62,-11.054 0.558,-0.935 1.059,-2.13 1.92,-2.625 11.037,-6.34 22.53,-11.044 35.688,-9.367 C -7.149,-7.574 -3.657,-3.916 0,0"/>
        </g>
        <g transform="translate(395.7802,585.2203)" id="g126">
          <path id="path128" style="fill:#402213;fill-opacity:1;fill-rule:nonzero;stroke:none" d="m 0,0 c -3.717,-4.137 -8.322,-6.152 -13.294,-7.49 -4.839,-1.302 -9.693,-2.547 -14.525,-3.875 -0.549,-0.151 -0.969,-0.723 -1.493,-1.023 -1.22,-0.7 -2.415,-1.779 -3.712,-1.934 -2.567,-0.306 -5.196,-0.08 -7.799,-0.099 -0.486,-0.003 -1.309,0.022 -1.406,-0.207 -2.346,-5.532 -7.745,-3.589 -11.629,-4.125 -4.62,-0.639 -9.575,0.479 -14.269,1.417 -1.619,0.323 -2.889,2.392 -4.319,3.663 1.817,1.291 3.504,3.361 5.48,3.687 2.845,0.47 5.897,-0.506 8.866,-0.552 13.223,-0.203 25.647,3.513 37.872,8.036 2.543,0.94 5.015,2.17 7.329,3.579 0.716,0.436 1.137,1.936 1.054,2.892 -0.052,0.589 -1.283,1.482 -2.036,1.538 -5.132,0.382 -10.521,1.644 -15.351,0.539 -4.968,-1.137 -10.846,0.008 -14.986,-4.669 -1.205,-1.361 -4.092,-1.092 -5.988,-2.019 -2.161,-1.057 -4.337,-2.354 -6.024,-4.032 -1.667,-1.658 -2.991,-3.195 -5.674,-2.893 -1.523,0.172 -3.123,-0.491 -4.7,-0.572 -0.77,-0.04 -1.836,0.164 -2.268,0.678 -0.389,0.463 -0.436,1.885 -0.052,2.223 3.889,3.425 7.523,7.393 11.98,9.845 4.183,2.301 9.386,2.927 13.893,4.473 4.275,1.468 8.949,1.722 12.792,3.616 7.151,3.523 13.492,0.825 19.377,-1.861 C -7.167,9.14 -4.493,5.751 -0.008,8.561 0.026,8.582 1.317,7.264 1.265,6.633 1.089,4.471 0.577,2.337 0,0"/>
        </g>
        <g transform="translate(369.4538,710.7031)" id="g130">
          <path id="path132" style="fill:#402213;fill-opacity:1;fill-rule:nonzero;stroke:none" d="m 0,0 c -1.025,-0.382 -2.05,-0.382 -3.074,-0.346 -0.008,0 -0.008,0.692 0,0.692 C -2.05,0.382 -1.025,0.382 0,0"/>
        </g>
        <g transform="translate(665.9622,301.9713)" id="g134">
          <path id="path136" style="fill:#402213;fill-opacity:1;fill-rule:nonzero;stroke:none" d="M 0,0 C 0,-0.512 -0.149,-1.235 -0.423,-1.906 -0.474,-2.032 -1.025,-1.953 -1.345,-1.969 -0.961,-1.377 -0.577,-0.785 0,0"/>
        </g>
      </g>
    </g>
  </g>
</svg>